{
  "accessors": [
    {
      "bufferView": 2,
      "componentType": 5126,
      "count": 1630,
      "max": [
        100.0,
        100.0,
        100.0
      ],
      "min": [
        -100.0,
        -100.0,
        -100.0
      ],
      "type": "VEC3"
    },
    {
      "bufferView": 2,
      "byteOffset": 19560,
      "componentType": 5126,
      "count": 1630,
      "max": [
        1.0,
        1.0,
        1.0
      ],
      "min": [
        -1.0,
        -1.0,
        -1.0
      ],
      "type": "VEC3"
    },
    {
      "bufferView": 1,
      "componentType": 5126,
      "count": 1630,
      "max": [
        0.7512649297714233,
        0.999775767326355
      ],
      "min": [
        8.383393287658691e-05,
        5.728006362915039e-05
      ],
      "type": "VEC2"
    },
    {
      "bufferView": 1,
      "byteOffset": 13040,
      "componentType": 5126,
      "count": 1630,
      "max": [
        0.7512649297714233,
        0.999775767326355
      ],
      "min": [
        8.383393287658691e-05,
        5.728006362915039e-05
      ],
      "type": "VEC2"
    },
    {
      "bufferView": 1,
      "byteOffset": 26080,
      "componentType": 5126,
      "count": 1630,
      "max": [
        0.7512649297714233,
        0.999775767326355
      ],
      "min": [
        8.383393287658691e-05,
        5.728006362915039e-05
      ],
      "type": "VEC2"
    },
    {
      "bufferView": 1,
      "byteOffset": 39120,
      "componentType": 5126,
      "count": 1630,
      "max": [
        0.7512649297714233,
        0.999775767326355
      ],
      "min": [
        8.383393287658691e-05,
        5.728006362915039e-05
      ],
      "type": "VEC2"
    },
    {
      "bufferView": 1,
      "byteOffset": 52160,
      "componentType": 5126,
      "count": 1630,
      "max": [
        0.7512649297714233,
        0.999775767326355
      ],
      "min": [
        8.383393287658691e-05,
        5.728006362915039e-05
      ],
      "type": "VEC2"
    },
    {
      "bufferView": 1,
      "byteOffset": 65200,
      "componentType": 5126,
      "count": 1630,
      "max": [
        0.7512649297714233,
        0.999775767326355
      ],
      "min": [
        8.383393287658691e-05,
        5.728006362915039e-05
      ],
      "type": "VEC2"
    },
    {
      "bufferView": 1,
      "byteOffset": 78240,
      "componentType": 5126,
      "count": 1630,
      "max": [
        0.7512649297714233,
        0.999775767326355
      ],
      "min": [
        8.383393287658691e-05,
        5.728006362915039e-05
      ],
      "type": "VEC2"
    },
    {
      "bufferView": 1,
      "byteOffset": 91280,
      "componentType": 5126,
      "count": 1630,
      "max": [
        0.7512649297714233,
        0.999775767326355
      ],
      "min": [
        8.383393287658691e-05,
        5.728006362915039e-05
      ],
      "type": "VEC2"
    },
    {
      "bufferView": 1,
      "byteOffset": 104320,
      "componentType": 5126,
      "count": 1630,
      "max": [
        0.7512649297714233,
        0.999775767326355
      ],
      "min": [
        8.383393287658691e-05,
        5.728006362915039e-05
      ],
      "type": "VEC2"
    },
    {
      "bufferView": 0,
      "componentType": 5125,
      "count": 9216,
      "type": "SCALAR"
    },
    {
      "bufferView": 2,
      "byteOffset": 39120,
      "componentType": 5126,
      "count": 1009,
      "max": [
        0.4994000196456909,
        0.5,
        0.5
      ],
      "min": [
        -0.5,
        -0.5,
        -0.5
      ],
      "type": "VEC3"
    },
    {
      "bufferView": 2,
      "byteOffset": 51228,
      "componentType": 5126,
      "count": 1009,
      "max": [
        1.0,
        1.0,
        1.0
      ],
      "min": [
        -1.0,
        -0.9996294379234314,
        -1.0
      ],
      "type": "VEC3"
    },
    {
      "bufferView": 1,
      "byteOffset": 117360,
      "componentType": 5126,
      "count": 1009,
      "max": [
        0.9998922944068909,
        0.9999253153800964
      ],
      "min": [
        2.5645811547292396e-05,
        0.07402855157852173
      ],
      "type": "VEC2"
    },
    {
      "bufferView": 1,
      "byteOffset": 125432,
      "componentType": 5126,
      "count": 1009,
      "max": [
        0.9998922944068909,
        0.9999253153800964
      ],
      "min": [
        2.5645811547292396e-05,
        0.07402855157852173
      ],
      "type": "VEC2"
    },
    {
      "bufferView": 1,
      "byteOffset": 133504,
      "componentType": 5126,
      "count": 1009,
      "max": [
        0.9998922944068909,
        0.9999253153800964
      ],
      "min": [
        2.5645811547292396e-05,
        0.07402855157852173
      ],
      "type": "VEC2"
    },
    {
      "bufferView": 1,
      "byteOffset": 141576,
      "componentType": 5126,
      "count": 1009,
      "max": [
        0.9998922944068909,
        0.9999253153800964
      ],
      "min": [
        2.5645811547292396e-05,
        0.07402855157852173
      ],
      "type": "VEC2"
    },
    {
      "bufferView": 1,
      "byteOffset": 149648,
      "componentType": 5126,
      "count": 1009,
      "max": [
        0.9998922944068909,
        0.9999253153800964
      ],
      "min": [
        2.5645811547292396e-05,
        0.07402855157852173
      ],
      "type": "VEC2"
    },
    {
      "bufferView": 1,
      "byteOffset": 157720,
      "componentType": 5126,
      "count": 1009,
      "max": [
        0.9998922944068909,
        0.9999253153800964
      ],
      "min": [
        2.5645811547292396e-05,
        0.07402855157852173
      ],
      "type": "VEC2"
    },
    {
      "bufferView": 1,
      "byteOffset": 165792,
      "componentType": 5126,
      "count": 1009,
      "max": [
        0.9998922944068909,
        0.9999253153800964
      ],
      "min": [
        2.5645811547292396e-05,
        0.07402855157852173
      ],
      "type": "VEC2"
    },
    {
      "bufferView": 1,
      "byteOffset": 173864,
      "componentType": 5126,
      "count": 1009,
      "max": [
        0.9998922944068909,
        0.9999253153800964
      ],
      "min": [
        2.5645811547292396e-05,
        0.07402855157852173
      ],
      "type": "VEC2"
    },
    {
      "bufferView": 1,
      "byteOffset": 181936,
      "componentType": 5126,
      "count": 1009,
      "max": [
        0.9998922944068909,
        0.9999253153800964
      ],
      "min": [
        2.5645811547292396e-05,
        0.07402855157852173
      ],
      "type": "VEC2"
    },
    {
      "bufferView": 0,
      "byteOffset": 36864,
      "componentType": 5125,
      "count": 2856,
      "type": "SCALAR"
    }
  ],
  "asset": {
    "extras": {
      "author": "yezzey (https://sketchfab.com/yezzey)",
      "license": "CC-BY-4.0 (http://creativecommons.org/licenses/by/4.0/)",
      "source": "https://sketchfab.com/3d-models/thinking-emoji-42140a29ce224e33a3e96c3e4963c4e3",
      "title": "Thinking Emoji"
    },
    "generator": "Sketchfab-12.68.0",
    "version": "2.0"
  },
  "bufferViews": [
    {
      "buffer": 0,
      "byteLength": 48288,
      "name": "floatBufferViews",
      "target": 34963
    },
    {
      "buffer": 0,
      "byteLength": 190008,
      "byteOffset": 48288,
      "byteStride": 8,
      "name": "floatBufferViews",
      "target": 34962
    },
    {
      "buffer": 0,
      "byteLength": 63336,
      "byteOffset": 238296,
      "byteStride": 12,
      "name": "floatBufferViews",
      "target": 34962
    }
  ],
  "buffers": [
    {
      "byteLength": 301632,
      "uri": "scene.bin"
    }
  ],
  "images": [
    {
      "uri": "textures/Material_215_baseColor.png"
    },
    {
      "uri": "textures/Material_217_baseColor.png"
    }
  ],
  "materials": [
    {
      "doubleSided": true,
      "name": "Material_215",
      "pbrMetallicRoughness": {
        "baseColorTexture": {
          "index": 0
        },
        "metallicFactor": 0.0,
        "roughnessFactor": 0.9381616368
      }
    },
    {
      "doubleSided": true,
      "name": "Material_217",
      "pbrMetallicRoughness": {
        "baseColorTexture": {
          "index": 1
        },
        "metallicFactor": 0.0,
        "roughnessFactor": 0.9691240448
      }
    }
  ],
  "meshes": [
    {
      "name": "node_id173_Material_215_0",
      "primitives": [
        {
          "attributes": {
            "NORMAL": 1,
            "POSITION": 0,
            "TEXCOORD_0": 2,
            "TEXCOORD_1": 3,
            "TEXCOORD_2": 4,
            "TEXCOORD_3": 5,
            "TEXCOORD_4": 6,
            "TEXCOORD_5": 7,
            "TEXCOORD_6": 8,
            "TEXCOORD_7": 9,
            "TEXCOORD_8": 10
          },
          "indices": 11,
          "material": 0,
          "mode": 4
        }
      ]
    },
    {
      "name": "node_id173_Material_217_0",
      "primitives": [
        {
          "attributes": {
            "NORMAL": 13,
            "POSITION": 12,
            "TEXCOORD_0": 14,
            "TEXCOORD_1": 15,
            "TEXCOORD_2": 16,
            "TEXCOORD_3": 17,
            "TEXCOORD_4": 18,
            "TEXCOORD_5": 19,
            "TEXCOORD_6": 20,
            "TEXCOORD_7": 21,
            "TEXCOORD_8": 22
          },
          "indices": 23,
          "material": 1,
          "mode": 4
        }
      ]
    }
  ],
  "nodes": [
    {
      "children": [
        1
      ],
      "matrix": [
        1.0,
        0.0,
        0.0,
        0.0,
        0.0,
        2.220446049250313e-16,
        -1.0,
        0.0,
        0.0,
        1.0,
        2.220446049250313e-16,
        0.0,
        0.0,
        0.0,
        0.0,
        1.0
      ],
      "name": "Sketchfab_model"
    },
    {
      "children": [
        2
      ],
      "matrix": [
        1.0,
        0.0,
        0.0,
        0.0,
        0.0,
        0.0,
        1.0,
        0.0,
        0.0,
        -1.0,
        0.0,
        0.0,
        0.0,
        0.0,
        0.0,
        1.0
      ],
      "name": "744ac37595644904a14a6cbfdd4bfdf7.fbx"
    },
    {
      "children": [
        3
      ],
      "name": "RootNode"
    },
    {
      "children": [
        4,
        6
      ],
      "matrix": [
        0.0007959653157740831,
        0.0,
        0.0,
        0.0,
        0.0,
        0.0007959653157740831,
        0.0,
        0.0,
        0.0,
        0.0,
        0.0007959653157740831,
        0.0,
        -0.02029612846672535,
        0.040987659245729446,
        0.3428105413913727,
        1.0
      ],
      "name": "node_id173"
    },
    {
      "children": [
        5
      ],
      "matrix": [
        1.3601298332214355,
        0.0,
        -0.0,
        0.0,
        0.0,
        1.3554089069366455,
        0.0,
        0.0,
        0.0,
        0.0,
        1.3554089069366455,
        0.0,
        0.0,
        5.341499328613281,
        -9.519775390625,
        1.0
      ],
      "name": "Object_4"
    },
    {
      "mesh": 0,
      "name": "node_id173_Material_215_0"
    },
    {
      "children": [
        7
      ],
      "name": "node_id173"
    },
    {
      "children": [
        8
      ],
      "matrix": [
        149.39065551757813,
        0.0,
        -0.0,
        0.0,
        0.0,
        136.74319458007813,
        0.0,
        0.0,
        0.0,
        0.0,
        34.72287368774414,
        0.0,
        -23.586013793945313,
        -72.51080322265625,
        127.69924926757813,
        1.0
      ],
      "name": "Object_7"
    },
    {
      "mesh": 1,
      "name": "node_id173_Material_217_0"
    }
  ],
  "samplers": [
    {
      "magFilter": 9729,
      "minFilter": 9987,
      "wrapS": 10497,
      "wrapT": 10497
    }
  ],
  "scene": 0,
  "scenes": [
    {
      "name": "Sketchfab_Scene",
      "nodes": [
        0
      ]
    }
  ],
  "textures": [
    {
      "sampler": 0,
      "source": 0
    },
    {
      "sampler": 0,
      "source": 1
    }
  ]
}
